<?xml version="1.0" encoding="utf-8" ?>
<svg baseProfile="full" height="800px" version="1.1" width="800px" xmlns="http://www.w3.org/2000/svg" xmlns:ev="http://www.w3.org/2001/xml-events" xmlns:xlink="http://www.w3.org/1999/xlink"><defs /><rect fill="white" height="29.0px" stroke="black" stroke-width="1" width="30.0px" x="120.0" y="0.0" /><rect fill="white" height="29.0px" stroke="black" stroke-width="1" width="30.0px" x="60.0" y="29.0" /><rect fill="white" height="29.0px" stroke="black" stroke-width="1" width="30.0px" x="90.0" y="29.0" /><rect fill="white" height="29.0px" stroke="black" stroke-width="1" width="30.0px" x="120.0" y="29.0" /><rect fill="white" height="29.0px" stroke="black" stroke-width="1" width="30.0px" x="150.0" y="29.0" /><rect fill="white" height="29.0px" stroke="black" stroke-width="1" width="30.0px" x="180.0" y="29.0" /><rect fill="white" height="29.0px" stroke="black" stroke-width="1" width="30.0px" x="210.0" y="29.0" /><rect fill="white" height="29.0px" stroke="black" stroke-width="1" width="30.0px" x="570.0" y="29.0" /><rect fill="white" height="29.0px" stroke="black" stroke-width="1" width="30.0px" x="120.0" y="58.0" /><rect fill="white" height="29.0px" stroke="black" stroke-width="1" width="30.0px" x="570.0" y="58.0" /><rect fill="white" height="29.0px" stroke="black" stroke-width="1" width="30.0px" x="690.0" y="58.0" /><rect fill="white" height="29.0px" stroke="black" stroke-width="1" width="30.0px" x="120.0" y="87.0" /><rect fill="white" height="29.0px" stroke="black" stroke-width="1" width="30.0px" x="570.0" y="87.0" /><rect fill="white" height="29.0px" stroke="black" stroke-width="1" width="30.0px" x="690.0" y="87.0" /><rect fill="white" height="29.0px" stroke="black" stroke-width="1" width="30.0px" x="90.0" y="116.0" /><rect fill="white" height="29.0px" stroke="black" stroke-width="1" width="30.0px" x="120.0" y="116.0" /><rect fill="white" height="29.0px" stroke="black" stroke-width="1" width="30.0px" x="150.0" y="116.0" /><rect fill="white" height="29.0px" stroke="black" stroke-width="1" width="30.0px" x="180.0" y="116.0" /><rect fill="white" height="29.0px" stroke="black" stroke-width="1" width="30.0px" x="210.0" y="116.0" /><rect fill="white" height="29.0px" stroke="black" stroke-width="1" width="30.0px" x="240.0" y="116.0" /><rect fill="white" height="29.0px" stroke="black" stroke-width="1" width="30.0px" x="270.0" y="116.0" /><rect fill="white" height="29.0px" stroke="black" stroke-width="1" width="30.0px" x="300.0" y="116.0" /><rect fill="white" height="29.0px" stroke="black" stroke-width="1" width="30.0px" x="330.0" y="116.0" /><rect fill="white" height="29.0px" stroke="black" stroke-width="1" width="30.0px" x="360.0" y="116.0" /><rect fill="white" height="29.0px" stroke="black" stroke-width="1" width="30.0px" x="390.0" y="116.0" /><rect fill="white" height="29.0px" stroke="black" stroke-width="1" width="30.0px" x="420.0" y="116.0" /><rect fill="white" height="29.0px" stroke="black" stroke-width="1" width="30.0px" x="450.0" y="116.0" /><rect fill="white" height="29.0px" stroke="black" stroke-width="1" width="30.0px" x="480.0" y="116.0" /><rect fill="white" height="29.0px" stroke="black" stroke-width="1" width="30.0px" x="510.0" y="116.0" /><rect fill="white" height="29.0px" stroke="black" stroke-width="1" width="30.0px" x="570.0" y="116.0" /><rect fill="white" height="29.0px" stroke="black" stroke-width="1" width="30.0px" x="690.0" y="116.0" /><rect fill="white" height="29.0px" stroke="black" stroke-width="1" width="30.0px" x="120.0" y="145.0" /><rect fill="white" height="29.0px" stroke="black" stroke-width="1" width="30.0px" x="360.0" y="145.0" /><rect fill="white" height="29.0px" stroke="black" stroke-width="1" width="30.0px" x="570.0" y="145.0" /><rect fill="white" height="29.0px" stroke="black" stroke-width="1" width="30.0px" x="690.0" y="145.0" /><rect fill="white" height="29.0px" stroke="black" stroke-width="1" width="30.0px" x="120.0" y="174.0" /><rect fill="white" height="29.0px" stroke="black" stroke-width="1" width="30.0px" x="180.0" y="174.0" /><rect fill="white" height="29.0px" stroke="black" stroke-width="1" width="30.0px" x="210.0" y="174.0" /><rect fill="white" height="29.0px" stroke="black" stroke-width="1" width="30.0px" x="240.0" y="174.0" /><rect fill="white" height="29.0px" stroke="black" stroke-width="1" width="30.0px" x="270.0" y="174.0" /><rect fill="white" height="29.0px" stroke="black" stroke-width="1" width="30.0px" x="300.0" y="174.0" /><rect fill="white" height="29.0px" stroke="black" stroke-width="1" width="30.0px" x="330.0" y="174.0" /><rect fill="white" height="29.0px" stroke="black" stroke-width="1" width="30.0px" x="360.0" y="174.0" /><rect fill="white" height="29.0px" stroke="black" stroke-width="1" width="30.0px" x="390.0" y="174.0" /><rect fill="white" height="29.0px" stroke="black" stroke-width="1" width="30.0px" x="420.0" y="174.0" /><rect fill="white" height="29.0px" stroke="black" stroke-width="1" width="30.0px" x="450.0" y="174.0" /><rect fill="white" height="29.0px" stroke="black" stroke-width="1" width="30.0px" x="480.0" y="174.0" /><rect fill="white" height="29.0px" stroke="black" stroke-width="1" width="30.0px" x="510.0" y="174.0" /><rect fill="white" height="29.0px" stroke="black" stroke-width="1" width="30.0px" x="540.0" y="174.0" /><rect fill="white" height="29.0px" stroke="black" stroke-width="1" width="30.0px" x="570.0" y="174.0" /><rect fill="white" height="29.0px" stroke="black" stroke-width="1" width="30.0px" x="690.0" y="174.0" /><rect fill="white" height="29.0px" stroke="black" stroke-width="1" width="30.0px" x="360.0" y="203.0" /><rect fill="white" height="29.0px" stroke="black" stroke-width="1" width="30.0px" x="570.0" y="203.0" /><rect fill="white" height="29.0px" stroke="black" stroke-width="1" width="30.0px" x="690.0" y="203.0" /><rect fill="white" height="29.0px" stroke="black" stroke-width="1" width="30.0px" x="60.0" y="232.0" /><rect fill="white" height="29.0px" stroke="black" stroke-width="1" width="30.0px" x="90.0" y="232.0" /><rect fill="white" height="29.0px" stroke="black" stroke-width="1" width="30.0px" x="120.0" y="232.0" /><rect fill="white" height="29.0px" stroke="black" stroke-width="1" width="30.0px" x="150.0" y="232.0" /><rect fill="white" height="29.0px" stroke="black" stroke-width="1" width="30.0px" x="180.0" y="232.0" /><rect fill="white" height="29.0px" stroke="black" stroke-width="1" width="30.0px" x="210.0" y="232.0" /><rect fill="white" height="29.0px" stroke="black" stroke-width="1" width="30.0px" x="240.0" y="232.0" /><rect fill="white" height="29.0px" stroke="black" stroke-width="1" width="30.0px" x="270.0" y="232.0" /><rect fill="white" height="29.0px" stroke="black" stroke-width="1" width="30.0px" x="300.0" y="232.0" /><rect fill="white" height="29.0px" stroke="black" stroke-width="1" width="30.0px" x="330.0" y="232.0" /><rect fill="white" height="29.0px" stroke="black" stroke-width="1" width="30.0px" x="360.0" y="232.0" /><rect fill="white" height="29.0px" stroke="black" stroke-width="1" width="30.0px" x="390.0" y="232.0" /><rect fill="white" height="29.0px" stroke="black" stroke-width="1" width="30.0px" x="690.0" y="232.0" /><rect fill="white" height="29.0px" stroke="black" stroke-width="1" width="30.0px" x="360.0" y="261.0" /><rect fill="white" height="29.0px" stroke="black" stroke-width="1" width="30.0px" x="450.0" y="261.0" /><rect fill="white" height="29.0px" stroke="black" stroke-width="1" width="30.0px" x="480.0" y="261.0" /><rect fill="white" height="29.0px" stroke="black" stroke-width="1" width="30.0px" x="510.0" y="261.0" /><rect fill="white" height="29.0px" stroke="black" stroke-width="1" width="30.0px" x="540.0" y="261.0" /><rect fill="white" height="29.0px" stroke="black" stroke-width="1" width="30.0px" x="570.0" y="261.0" /><rect fill="white" height="29.0px" stroke="black" stroke-width="1" width="30.0px" x="600.0" y="261.0" /><rect fill="white" height="29.0px" stroke="black" stroke-width="1" width="30.0px" x="630.0" y="261.0" /><rect fill="white" height="29.0px" stroke="black" stroke-width="1" width="30.0px" x="660.0" y="261.0" /><rect fill="white" height="29.0px" stroke="black" stroke-width="1" width="30.0px" x="690.0" y="261.0" /><rect fill="white" height="29.0px" stroke="black" stroke-width="1" width="30.0px" x="720.0" y="261.0" /><rect fill="white" height="29.0px" stroke="black" stroke-width="1" width="30.0px" x="360.0" y="290.0" /><rect fill="white" height="29.0px" stroke="black" stroke-width="1" width="30.0px" x="510.0" y="290.0" /><rect fill="white" height="29.0px" stroke="black" stroke-width="1" width="30.0px" x="690.0" y="290.0" /><rect fill="white" height="29.0px" stroke="black" stroke-width="1" width="30.0px" x="30.0" y="319.0" /><rect fill="white" height="29.0px" stroke="black" stroke-width="1" width="30.0px" x="60.0" y="319.0" /><rect fill="white" height="29.0px" stroke="black" stroke-width="1" width="30.0px" x="90.0" y="319.0" /><rect fill="white" height="29.0px" stroke="black" stroke-width="1" width="30.0px" x="120.0" y="319.0" /><rect fill="white" height="29.0px" stroke="black" stroke-width="1" width="30.0px" x="150.0" y="319.0" /><rect fill="white" height="29.0px" stroke="black" stroke-width="1" width="30.0px" x="180.0" y="319.0" /><rect fill="white" height="29.0px" stroke="black" stroke-width="1" width="30.0px" x="210.0" y="319.0" /><rect fill="white" height="29.0px" stroke="black" stroke-width="1" width="30.0px" x="240.0" y="319.0" /><rect fill="white" height="29.0px" stroke="black" stroke-width="1" width="30.0px" x="270.0" y="319.0" /><rect fill="white" height="29.0px" stroke="black" stroke-width="1" width="30.0px" x="300.0" y="319.0" /><rect fill="white" height="29.0px" stroke="black" stroke-width="1" width="30.0px" x="330.0" y="319.0" /><rect fill="white" height="29.0px" stroke="black" stroke-width="1" width="30.0px" x="360.0" y="319.0" /><rect fill="white" height="29.0px" stroke="black" stroke-width="1" width="30.0px" x="390.0" y="319.0" /><rect fill="white" height="29.0px" stroke="black" stroke-width="1" width="30.0px" x="420.0" y="319.0" /><rect fill="white" height="29.0px" stroke="black" stroke-width="1" width="30.0px" x="450.0" y="319.0" /><rect fill="white" height="29.0px" stroke="black" stroke-width="1" width="30.0px" x="510.0" y="319.0" /><rect fill="white" height="29.0px" stroke="black" stroke-width="1" width="30.0px" x="570.0" y="319.0" /><rect fill="white" height="29.0px" stroke="black" stroke-width="1" width="30.0px" x="690.0" y="319.0" /><rect fill="white" height="29.0px" stroke="black" stroke-width="1" width="30.0px" x="360.0" y="348.0" /><rect fill="white" height="29.0px" stroke="black" stroke-width="1" width="30.0px" x="510.0" y="348.0" /><rect fill="white" height="29.0px" stroke="black" stroke-width="1" width="30.0px" x="570.0" y="348.0" /><rect fill="white" height="29.0px" stroke="black" stroke-width="1" width="30.0px" x="360.0" y="377.0" /><rect fill="white" height="29.0px" stroke="black" stroke-width="1" width="30.0px" x="510.0" y="377.0" /><rect fill="white" height="29.0px" stroke="black" stroke-width="1" width="30.0px" x="570.0" y="377.0" /><rect fill="white" height="29.0px" stroke="black" stroke-width="1" width="30.0px" x="120.0" y="406.0" /><rect fill="white" height="29.0px" stroke="black" stroke-width="1" width="30.0px" x="210.0" y="406.0" /><rect fill="white" height="29.0px" stroke="black" stroke-width="1" width="30.0px" x="240.0" y="406.0" /><rect fill="white" height="29.0px" stroke="black" stroke-width="1" width="30.0px" x="270.0" y="406.0" /><rect fill="white" height="29.0px" stroke="black" stroke-width="1" width="30.0px" x="300.0" y="406.0" /><rect fill="white" height="29.0px" stroke="black" stroke-width="1" width="30.0px" x="330.0" y="406.0" /><rect fill="white" height="29.0px" stroke="black" stroke-width="1" width="30.0px" x="360.0" y="406.0" /><rect fill="white" height="29.0px" stroke="black" stroke-width="1" width="30.0px" x="390.0" y="406.0" /><rect fill="white" height="29.0px" stroke="black" stroke-width="1" width="30.0px" x="420.0" y="406.0" /><rect fill="white" height="29.0px" stroke="black" stroke-width="1" width="30.0px" x="450.0" y="406.0" /><rect fill="white" height="29.0px" stroke="black" stroke-width="1" width="30.0px" x="480.0" y="406.0" /><rect fill="white" height="29.0px" stroke="black" stroke-width="1" width="30.0px" x="510.0" y="406.0" /><rect fill="white" height="29.0px" stroke="black" stroke-width="1" width="30.0px" x="540.0" y="406.0" /><rect fill="white" height="29.0px" stroke="black" stroke-width="1" width="30.0px" x="570.0" y="406.0" /><rect fill="white" height="29.0px" stroke="black" stroke-width="1" width="30.0px" x="600.0" y="406.0" /><rect fill="white" height="29.0px" stroke="black" stroke-width="1" width="30.0px" x="0.0" y="435.0" /><rect fill="white" height="29.0px" stroke="black" stroke-width="1" width="30.0px" x="30.0" y="435.0" /><rect fill="white" height="29.0px" stroke="black" stroke-width="1" width="30.0px" x="60.0" y="435.0" /><rect fill="white" height="29.0px" stroke="black" stroke-width="1" width="30.0px" x="90.0" y="435.0" /><rect fill="white" height="29.0px" stroke="black" stroke-width="1" width="30.0px" x="120.0" y="435.0" /><rect fill="white" height="29.0px" stroke="black" stroke-width="1" width="30.0px" x="150.0" y="435.0" /><rect fill="white" height="29.0px" stroke="black" stroke-width="1" width="30.0px" x="180.0" y="435.0" /><rect fill="white" height="29.0px" stroke="black" stroke-width="1" width="30.0px" x="360.0" y="435.0" /><rect fill="white" height="29.0px" stroke="black" stroke-width="1" width="30.0px" x="510.0" y="435.0" /><rect fill="white" height="29.0px" stroke="black" stroke-width="1" width="30.0px" x="570.0" y="435.0" /><rect fill="white" height="29.0px" stroke="black" stroke-width="1" width="30.0px" x="120.0" y="464.0" /><rect fill="white" height="29.0px" stroke="black" stroke-width="1" width="30.0px" x="360.0" y="464.0" /><rect fill="white" height="29.0px" stroke="black" stroke-width="1" width="30.0px" x="510.0" y="464.0" /><rect fill="white" height="29.0px" stroke="black" stroke-width="1" width="30.0px" x="570.0" y="464.0" /><rect fill="white" height="29.0px" stroke="black" stroke-width="1" width="30.0px" x="30.0" y="493.0" /><rect fill="white" height="29.0px" stroke="black" stroke-width="1" width="30.0px" x="60.0" y="493.0" /><rect fill="white" height="29.0px" stroke="black" stroke-width="1" width="30.0px" x="90.0" y="493.0" /><rect fill="white" height="29.0px" stroke="black" stroke-width="1" width="30.0px" x="120.0" y="493.0" /><rect fill="white" height="29.0px" stroke="black" stroke-width="1" width="30.0px" x="150.0" y="493.0" /><rect fill="white" height="29.0px" stroke="black" stroke-width="1" width="30.0px" x="210.0" y="493.0" /><rect fill="white" height="29.0px" stroke="black" stroke-width="1" width="30.0px" x="240.0" y="493.0" /><rect fill="white" height="29.0px" stroke="black" stroke-width="1" width="30.0px" x="270.0" y="493.0" /><rect fill="white" height="29.0px" stroke="black" stroke-width="1" width="30.0px" x="300.0" y="493.0" /><rect fill="white" height="29.0px" stroke="black" stroke-width="1" width="30.0px" x="330.0" y="493.0" /><rect fill="white" height="29.0px" stroke="black" stroke-width="1" width="30.0px" x="360.0" y="493.0" /><rect fill="white" height="29.0px" stroke="black" stroke-width="1" width="30.0px" x="390.0" y="493.0" /><rect fill="white" height="29.0px" stroke="black" stroke-width="1" width="30.0px" x="420.0" y="493.0" /><rect fill="white" height="29.0px" stroke="black" stroke-width="1" width="30.0px" x="450.0" y="493.0" /><rect fill="white" height="29.0px" stroke="black" stroke-width="1" width="30.0px" x="510.0" y="493.0" /><rect fill="white" height="29.0px" stroke="black" stroke-width="1" width="30.0px" x="570.0" y="493.0" /><rect fill="white" height="29.0px" stroke="black" stroke-width="1" width="30.0px" x="120.0" y="522.0" /><rect fill="white" height="29.0px" stroke="black" stroke-width="1" width="30.0px" x="360.0" y="522.0" /><rect fill="white" height="29.0px" stroke="black" stroke-width="1" width="30.0px" x="510.0" y="522.0" /><rect fill="white" height="29.0px" stroke="black" stroke-width="1" width="30.0px" x="570.0" y="522.0" /><rect fill="white" height="29.0px" stroke="black" stroke-width="1" width="30.0px" x="660.0" y="522.0" /><rect fill="white" height="29.0px" stroke="black" stroke-width="1" width="30.0px" x="30.0" y="551.0" /><rect fill="white" height="29.0px" stroke="black" stroke-width="1" width="30.0px" x="60.0" y="551.0" /><rect fill="white" height="29.0px" stroke="black" stroke-width="1" width="30.0px" x="90.0" y="551.0" /><rect fill="white" height="29.0px" stroke="black" stroke-width="1" width="30.0px" x="120.0" y="551.0" /><rect fill="white" height="29.0px" stroke="black" stroke-width="1" width="30.0px" x="150.0" y="551.0" /><rect fill="white" height="29.0px" stroke="black" stroke-width="1" width="30.0px" x="180.0" y="551.0" /><rect fill="white" height="29.0px" stroke="black" stroke-width="1" width="30.0px" x="210.0" y="551.0" /><rect fill="white" height="29.0px" stroke="black" stroke-width="1" width="30.0px" x="240.0" y="551.0" /><rect fill="white" height="29.0px" stroke="black" stroke-width="1" width="30.0px" x="270.0" y="551.0" /><rect fill="white" height="29.0px" stroke="black" stroke-width="1" width="30.0px" x="300.0" y="551.0" /><rect fill="white" height="29.0px" stroke="black" stroke-width="1" width="30.0px" x="330.0" y="551.0" /><rect fill="white" height="29.0px" stroke="black" stroke-width="1" width="30.0px" x="360.0" y="551.0" /><rect fill="white" height="29.0px" stroke="black" stroke-width="1" width="30.0px" x="390.0" y="551.0" /><rect fill="white" height="29.0px" stroke="black" stroke-width="1" width="30.0px" x="510.0" y="551.0" /><rect fill="white" height="29.0px" stroke="black" stroke-width="1" width="30.0px" x="570.0" y="551.0" /><rect fill="white" height="29.0px" stroke="black" stroke-width="1" width="30.0px" x="660.0" y="551.0" /><rect fill="white" height="29.0px" stroke="black" stroke-width="1" width="30.0px" x="120.0" y="580.0" /><rect fill="white" height="29.0px" stroke="black" stroke-width="1" width="30.0px" x="570.0" y="580.0" /><rect fill="white" height="29.0px" stroke="black" stroke-width="1" width="30.0px" x="660.0" y="580.0" /><rect fill="white" height="29.0px" stroke="black" stroke-width="1" width="30.0px" x="30.0" y="609.0" /><rect fill="white" height="29.0px" stroke="black" stroke-width="1" width="30.0px" x="60.0" y="609.0" /><rect fill="white" height="29.0px" stroke="black" stroke-width="1" width="30.0px" x="90.0" y="609.0" /><rect fill="white" height="29.0px" stroke="black" stroke-width="1" width="30.0px" x="120.0" y="609.0" /><rect fill="white" height="29.0px" stroke="black" stroke-width="1" width="30.0px" x="150.0" y="609.0" /><rect fill="white" height="29.0px" stroke="black" stroke-width="1" width="30.0px" x="180.0" y="609.0" /><rect fill="white" height="29.0px" stroke="black" stroke-width="1" width="30.0px" x="210.0" y="609.0" /><rect fill="white" height="29.0px" stroke="black" stroke-width="1" width="30.0px" x="240.0" y="609.0" /><rect fill="white" height="29.0px" stroke="black" stroke-width="1" width="30.0px" x="270.0" y="609.0" /><rect fill="white" height="29.0px" stroke="black" stroke-width="1" width="30.0px" x="300.0" y="609.0" /><rect fill="white" height="29.0px" stroke="black" stroke-width="1" width="30.0px" x="330.0" y="609.0" /><rect fill="white" height="29.0px" stroke="black" stroke-width="1" width="30.0px" x="480.0" y="609.0" /><rect fill="white" height="29.0px" stroke="black" stroke-width="1" width="30.0px" x="510.0" y="609.0" /><rect fill="white" height="29.0px" stroke="black" stroke-width="1" width="30.0px" x="540.0" y="609.0" /><rect fill="white" height="29.0px" stroke="black" stroke-width="1" width="30.0px" x="570.0" y="609.0" /><rect fill="white" height="29.0px" stroke="black" stroke-width="1" width="30.0px" x="600.0" y="609.0" /><rect fill="white" height="29.0px" stroke="black" stroke-width="1" width="30.0px" x="630.0" y="609.0" /><rect fill="white" height="29.0px" stroke="black" stroke-width="1" width="30.0px" x="660.0" y="609.0" /><rect fill="white" height="29.0px" stroke="black" stroke-width="1" width="30.0px" x="690.0" y="609.0" /><rect fill="white" height="29.0px" stroke="black" stroke-width="1" width="30.0px" x="120.0" y="638.0" /><rect fill="white" height="29.0px" stroke="black" stroke-width="1" width="30.0px" x="570.0" y="638.0" /><rect fill="white" height="29.0px" stroke="black" stroke-width="1" width="30.0px" x="30.0" y="667.0" /><rect fill="white" height="29.0px" stroke="black" stroke-width="1" width="30.0px" x="60.0" y="667.0" /><rect fill="white" height="29.0px" stroke="black" stroke-width="1" width="30.0px" x="90.0" y="667.0" /><rect fill="white" height="29.0px" stroke="black" stroke-width="1" width="30.0px" x="120.0" y="667.0" /><rect fill="white" height="29.0px" stroke="black" stroke-width="1" width="30.0px" x="150.0" y="667.0" /><rect fill="white" height="29.0px" stroke="black" stroke-width="1" width="30.0px" x="180.0" y="667.0" /><rect fill="white" height="29.0px" stroke="black" stroke-width="1" width="30.0px" x="210.0" y="667.0" /><rect fill="white" height="29.0px" stroke="black" stroke-width="1" width="30.0px" x="240.0" y="667.0" /><rect fill="white" height="29.0px" stroke="black" stroke-width="1" width="30.0px" x="270.0" y="667.0" /><rect fill="white" height="29.0px" stroke="black" stroke-width="1" width="30.0px" x="330.0" y="667.0" /><rect fill="white" height="29.0px" stroke="black" stroke-width="1" width="30.0px" x="360.0" y="667.0" /><rect fill="white" height="29.0px" stroke="black" stroke-width="1" width="30.0px" x="390.0" y="667.0" /><rect fill="white" height="29.0px" stroke="black" stroke-width="1" width="30.0px" x="420.0" y="667.0" /><rect fill="white" height="29.0px" stroke="black" stroke-width="1" width="30.0px" x="450.0" y="667.0" /><rect fill="white" height="29.0px" stroke="black" stroke-width="1" width="30.0px" x="480.0" y="667.0" /><rect fill="white" height="29.0px" stroke="black" stroke-width="1" width="30.0px" x="510.0" y="667.0" /><rect fill="white" height="29.0px" stroke="black" stroke-width="1" width="30.0px" x="540.0" y="667.0" /><rect fill="white" height="29.0px" stroke="black" stroke-width="1" width="30.0px" x="570.0" y="667.0" /><rect fill="white" height="29.0px" stroke="black" stroke-width="1" width="30.0px" x="600.0" y="667.0" /><rect fill="white" height="29.0px" stroke="black" stroke-width="1" width="30.0px" x="120.0" y="696.0" /></svg>