<?xml version="1.0" encoding="utf-8" ?>
<svg baseProfile="full" height="800px" version="1.1" width="800px" xmlns="http://www.w3.org/2000/svg" xmlns:ev="http://www.w3.org/2001/xml-events" xmlns:xlink="http://www.w3.org/1999/xlink"><defs /><rect fill="white" height="29.0px" stroke="black" stroke-width="1" width="30.0px" x="120.0" y="0.0" /><text font-family="Arial" font-size="24.0px" text-anchor="middle" x="135.0" y="21.5">P</text><rect fill="white" height="29.0px" stroke="black" stroke-width="1" width="30.0px" x="60.0" y="29.0" /><text font-family="Arial" font-size="24.0px" text-anchor="middle" x="75.0" y="50.5">P</text><rect fill="white" height="29.0px" stroke="black" stroke-width="1" width="30.0px" x="90.0" y="29.0" /><text font-family="Arial" font-size="24.0px" text-anchor="middle" x="105.0" y="50.5">A</text><rect fill="white" height="29.0px" stroke="black" stroke-width="1" width="30.0px" x="120.0" y="29.0" /><text font-family="Arial" font-size="24.0px" text-anchor="middle" x="135.0" y="50.5">R</text><rect fill="white" height="29.0px" stroke="black" stroke-width="1" width="30.0px" x="150.0" y="29.0" /><text font-family="Arial" font-size="24.0px" text-anchor="middle" x="165.0" y="50.5">K</text><rect fill="white" height="29.0px" stroke="black" stroke-width="1" width="30.0px" x="180.0" y="29.0" /><text font-family="Arial" font-size="24.0px" text-anchor="middle" x="195.0" y="50.5">E</text><rect fill="white" height="29.0px" stroke="black" stroke-width="1" width="30.0px" x="210.0" y="29.0" /><text font-family="Arial" font-size="24.0px" text-anchor="middle" x="225.0" y="50.5">R</text><rect fill="white" height="29.0px" stroke="black" stroke-width="1" width="30.0px" x="570.0" y="29.0" /><text font-family="Arial" font-size="24.0px" text-anchor="middle" x="585.0" y="50.5">H</text><rect fill="white" height="29.0px" stroke="black" stroke-width="1" width="30.0px" x="120.0" y="58.0" /><text font-family="Arial" font-size="24.0px" text-anchor="middle" x="135.0" y="79.5">Á</text><rect fill="white" height="29.0px" stroke="black" stroke-width="1" width="30.0px" x="570.0" y="58.0" /><text font-family="Arial" font-size="24.0px" text-anchor="middle" x="585.0" y="79.5">Á</text><rect fill="white" height="29.0px" stroke="black" stroke-width="1" width="30.0px" x="690.0" y="58.0" /><text font-family="Arial" font-size="24.0px" text-anchor="middle" x="705.0" y="79.5">P</text><rect fill="white" height="29.0px" stroke="black" stroke-width="1" width="30.0px" x="120.0" y="87.0" /><text font-family="Arial" font-size="24.0px" text-anchor="middle" x="135.0" y="108.5">T</text><rect fill="white" height="29.0px" stroke="black" stroke-width="1" width="30.0px" x="570.0" y="87.0" /><text font-family="Arial" font-size="24.0px" text-anchor="middle" x="585.0" y="108.5">B</text><rect fill="white" height="29.0px" stroke="black" stroke-width="1" width="30.0px" x="690.0" y="87.0" /><text font-family="Arial" font-size="24.0px" text-anchor="middle" x="705.0" y="108.5">R</text><rect fill="white" height="29.0px" stroke="black" stroke-width="1" width="30.0px" x="90.0" y="116.0" /><text font-family="Arial" font-size="24.0px" text-anchor="middle" x="105.0" y="137.5">V</text><rect fill="white" height="29.0px" stroke="black" stroke-width="1" width="30.0px" x="120.0" y="116.0" /><text font-family="Arial" font-size="24.0px" text-anchor="middle" x="135.0" y="137.5">I</text><rect fill="white" height="29.0px" stroke="black" stroke-width="1" width="30.0px" x="150.0" y="116.0" /><text font-family="Arial" font-size="24.0px" text-anchor="middle" x="165.0" y="137.5">V</text><rect fill="white" height="29.0px" stroke="black" stroke-width="1" width="30.0px" x="180.0" y="116.0" /><text font-family="Arial" font-size="24.0px" text-anchor="middle" x="195.0" y="137.5">A</text><rect fill="white" height="29.0px" stroke="black" stroke-width="1" width="30.0px" x="210.0" y="116.0" /><text font-family="Arial" font-size="24.0px" text-anchor="middle" x="225.0" y="137.5">N</text><rect fill="white" height="29.0px" stroke="black" stroke-width="1" width="30.0px" x="240.0" y="116.0" /><text font-family="Arial" font-size="24.0px" text-anchor="middle" x="255.0" y="137.5">O</text><rect fill="white" height="29.0px" stroke="black" stroke-width="1" width="30.0px" x="270.0" y="116.0" /><text font-family="Arial" font-size="24.0px" text-anchor="middle" x="285.0" y="137.5">V</text><rect fill="white" height="29.0px" stroke="black" stroke-width="1" width="30.0px" x="300.0" y="116.0" /><text font-family="Arial" font-size="24.0px" text-anchor="middle" x="315.0" y="137.5">O</text><rect fill="white" height="29.0px" stroke="black" stroke-width="1" width="30.0px" x="330.0" y="116.0" /><text font-family="Arial" font-size="24.0px" text-anchor="middle" x="345.0" y="137.5">S</text><rect fill="white" height="29.0px" stroke="black" stroke-width="1" width="30.0px" x="360.0" y="116.0" /><text font-family="Arial" font-size="24.0px" text-anchor="middle" x="375.0" y="137.5">T</text><rect fill="white" height="29.0px" stroke="black" stroke-width="1" width="30.0px" x="390.0" y="116.0" /><text font-family="Arial" font-size="24.0px" text-anchor="middle" x="405.0" y="137.5">E</text><rect fill="white" height="29.0px" stroke="black" stroke-width="1" width="30.0px" x="420.0" y="116.0" /><text font-family="Arial" font-size="24.0px" text-anchor="middle" x="435.0" y="137.5">M</text><rect fill="white" height="29.0px" stroke="black" stroke-width="1" width="30.0px" x="450.0" y="116.0" /><text font-family="Arial" font-size="24.0px" text-anchor="middle" x="465.0" y="137.5">P</text><rect fill="white" height="29.0px" stroke="black" stroke-width="1" width="30.0px" x="480.0" y="116.0" /><text font-family="Arial" font-size="24.0px" text-anchor="middle" x="495.0" y="137.5">O</text><rect fill="white" height="29.0px" stroke="black" stroke-width="1" width="30.0px" x="510.0" y="116.0" /><text font-family="Arial" font-size="24.0px" text-anchor="middle" x="525.0" y="137.5">S</text><rect fill="white" height="29.0px" stroke="black" stroke-width="1" width="30.0px" x="570.0" y="116.0" /><text font-family="Arial" font-size="24.0px" text-anchor="middle" x="585.0" y="137.5">I</text><rect fill="white" height="29.0px" stroke="black" stroke-width="1" width="30.0px" x="690.0" y="116.0" /><text font-family="Arial" font-size="24.0px" text-anchor="middle" x="705.0" y="137.5">I</text><rect fill="white" height="29.0px" stroke="black" stroke-width="1" width="30.0px" x="120.0" y="145.0" /><text font-family="Arial" font-size="24.0px" text-anchor="middle" x="135.0" y="166.5">C</text><rect fill="white" height="29.0px" stroke="black" stroke-width="1" width="30.0px" x="360.0" y="145.0" /><text font-family="Arial" font-size="24.0px" text-anchor="middle" x="375.0" y="166.5">R</text><rect fill="white" height="29.0px" stroke="black" stroke-width="1" width="30.0px" x="570.0" y="145.0" /><text font-family="Arial" font-size="24.0px" text-anchor="middle" x="585.0" y="166.5">T</text><rect fill="white" height="29.0px" stroke="black" stroke-width="1" width="30.0px" x="690.0" y="145.0" /><text font-family="Arial" font-size="24.0px" text-anchor="middle" x="705.0" y="166.5">N</text><rect fill="white" height="29.0px" stroke="black" stroke-width="1" width="30.0px" x="120.0" y="174.0" /><text font-family="Arial" font-size="24.0px" text-anchor="middle" x="135.0" y="195.5">A</text><rect fill="white" height="29.0px" stroke="black" stroke-width="1" width="30.0px" x="180.0" y="174.0" /><text font-family="Arial" font-size="24.0px" text-anchor="middle" x="195.0" y="195.5">I</text><rect fill="white" height="29.0px" stroke="black" stroke-width="1" width="30.0px" x="210.0" y="174.0" /><text font-family="Arial" font-size="24.0px" text-anchor="middle" x="225.0" y="195.5">N</text><rect fill="white" height="29.0px" stroke="black" stroke-width="1" width="30.0px" x="240.0" y="174.0" /><text font-family="Arial" font-size="24.0px" text-anchor="middle" x="255.0" y="195.5">T</text><rect fill="white" height="29.0px" stroke="black" stroke-width="1" width="30.0px" x="270.0" y="174.0" /><text font-family="Arial" font-size="24.0px" text-anchor="middle" x="285.0" y="195.5">E</text><rect fill="white" height="29.0px" stroke="black" stroke-width="1" width="30.0px" x="300.0" y="174.0" /><text font-family="Arial" font-size="24.0px" text-anchor="middle" x="315.0" y="195.5">R</text><rect fill="white" height="29.0px" stroke="black" stroke-width="1" width="30.0px" x="330.0" y="174.0" /><text font-family="Arial" font-size="24.0px" text-anchor="middle" x="345.0" y="195.5">N</text><rect fill="white" height="29.0px" stroke="black" stroke-width="1" width="30.0px" x="360.0" y="174.0" /><text font-family="Arial" font-size="24.0px" text-anchor="middle" x="375.0" y="195.5">A</text><rect fill="white" height="29.0px" stroke="black" stroke-width="1" width="30.0px" x="390.0" y="174.0" /><text font-family="Arial" font-size="24.0px" text-anchor="middle" x="405.0" y="195.5">L</text><rect fill="white" height="29.0px" stroke="black" stroke-width="1" width="30.0px" x="420.0" y="174.0" /><text font-family="Arial" font-size="24.0px" text-anchor="middle" x="435.0" y="195.5">I</text><rect fill="white" height="29.0px" stroke="black" stroke-width="1" width="30.0px" x="450.0" y="174.0" /><text font-family="Arial" font-size="24.0px" text-anchor="middle" x="465.0" y="195.5">Z</text><rect fill="white" height="29.0px" stroke="black" stroke-width="1" width="30.0px" x="480.0" y="174.0" /><text font-family="Arial" font-size="24.0px" text-anchor="middle" x="495.0" y="195.5">A</text><rect fill="white" height="29.0px" stroke="black" stroke-width="1" width="30.0px" x="510.0" y="174.0" /><text font-family="Arial" font-size="24.0px" text-anchor="middle" x="525.0" y="195.5">Ç</text><rect fill="white" height="29.0px" stroke="black" stroke-width="1" width="30.0px" x="540.0" y="174.0" /><text font-family="Arial" font-size="24.0px" text-anchor="middle" x="555.0" y="195.5">Ã</text><rect fill="white" height="29.0px" stroke="black" stroke-width="1" width="30.0px" x="570.0" y="174.0" /><text font-family="Arial" font-size="24.0px" text-anchor="middle" x="585.0" y="195.5">O</text><rect fill="white" height="29.0px" stroke="black" stroke-width="1" width="30.0px" x="690.0" y="174.0" /><text font-family="Arial" font-size="24.0px" text-anchor="middle" x="705.0" y="195.5">C</text><rect fill="white" height="29.0px" stroke="black" stroke-width="1" width="30.0px" x="360.0" y="203.0" /><text font-family="Arial" font-size="24.0px" text-anchor="middle" x="375.0" y="224.5">B</text><rect fill="white" height="29.0px" stroke="black" stroke-width="1" width="30.0px" x="570.0" y="203.0" /><text font-family="Arial" font-size="24.0px" text-anchor="middle" x="585.0" y="224.5">S</text><rect fill="white" height="29.0px" stroke="black" stroke-width="1" width="30.0px" x="690.0" y="203.0" /><text font-family="Arial" font-size="24.0px" text-anchor="middle" x="705.0" y="224.5">Í</text><rect fill="white" height="29.0px" stroke="black" stroke-width="1" width="30.0px" x="60.0" y="232.0" /><text font-family="Arial" font-size="24.0px" text-anchor="middle" x="75.0" y="253.5">C</text><rect fill="white" height="29.0px" stroke="black" stroke-width="1" width="30.0px" x="90.0" y="232.0" /><text font-family="Arial" font-size="24.0px" text-anchor="middle" x="105.0" y="253.5">O</text><rect fill="white" height="29.0px" stroke="black" stroke-width="1" width="30.0px" x="120.0" y="232.0" /><text font-family="Arial" font-size="24.0px" text-anchor="middle" x="135.0" y="253.5">M</text><rect fill="white" height="29.0px" stroke="black" stroke-width="1" width="30.0px" x="150.0" y="232.0" /><text font-family="Arial" font-size="24.0px" text-anchor="middle" x="165.0" y="253.5">P</text><rect fill="white" height="29.0px" stroke="black" stroke-width="1" width="30.0px" x="180.0" y="232.0" /><text font-family="Arial" font-size="24.0px" text-anchor="middle" x="195.0" y="253.5">A</text><rect fill="white" height="29.0px" stroke="black" stroke-width="1" width="30.0px" x="210.0" y="232.0" /><text font-family="Arial" font-size="24.0px" text-anchor="middle" x="225.0" y="253.5">R</text><rect fill="white" height="29.0px" stroke="black" stroke-width="1" width="30.0px" x="240.0" y="232.0" /><text font-family="Arial" font-size="24.0px" text-anchor="middle" x="255.0" y="253.5">T</text><rect fill="white" height="29.0px" stroke="black" stroke-width="1" width="30.0px" x="270.0" y="232.0" /><text font-family="Arial" font-size="24.0px" text-anchor="middle" x="285.0" y="253.5">I</text><rect fill="white" height="29.0px" stroke="black" stroke-width="1" width="30.0px" x="300.0" y="232.0" /><text font-family="Arial" font-size="24.0px" text-anchor="middle" x="315.0" y="253.5">L</text><rect fill="white" height="29.0px" stroke="black" stroke-width="1" width="30.0px" x="330.0" y="232.0" /><text font-family="Arial" font-size="24.0px" text-anchor="middle" x="345.0" y="253.5">H</text><rect fill="white" height="29.0px" stroke="black" stroke-width="1" width="30.0px" x="360.0" y="232.0" /><text font-family="Arial" font-size="24.0px" text-anchor="middle" x="375.0" y="253.5">A</text><rect fill="white" height="29.0px" stroke="black" stroke-width="1" width="30.0px" x="390.0" y="232.0" /><text font-family="Arial" font-size="24.0px" text-anchor="middle" x="405.0" y="253.5">R</text><rect fill="white" height="29.0px" stroke="black" stroke-width="1" width="30.0px" x="690.0" y="232.0" /><text font-family="Arial" font-size="24.0px" text-anchor="middle" x="705.0" y="253.5">P</text><rect fill="white" height="29.0px" stroke="black" stroke-width="1" width="30.0px" x="360.0" y="261.0" /><text font-family="Arial" font-size="24.0px" text-anchor="middle" x="375.0" y="282.5">L</text><rect fill="white" height="29.0px" stroke="black" stroke-width="1" width="30.0px" x="450.0" y="261.0" /><text font-family="Arial" font-size="24.0px" text-anchor="middle" x="465.0" y="282.5">E</text><rect fill="white" height="29.0px" stroke="black" stroke-width="1" width="30.0px" x="480.0" y="261.0" /><text font-family="Arial" font-size="24.0px" text-anchor="middle" x="495.0" y="282.5">X</text><rect fill="white" height="29.0px" stroke="black" stroke-width="1" width="30.0px" x="510.0" y="261.0" /><text font-family="Arial" font-size="24.0px" text-anchor="middle" x="525.0" y="282.5">C</text><rect fill="white" height="29.0px" stroke="black" stroke-width="1" width="30.0px" x="540.0" y="261.0" /><text font-family="Arial" font-size="24.0px" text-anchor="middle" x="555.0" y="282.5">E</text><rect fill="white" height="29.0px" stroke="black" stroke-width="1" width="30.0px" x="570.0" y="261.0" /><text font-family="Arial" font-size="24.0px" text-anchor="middle" x="585.0" y="282.5">L</text><rect fill="white" height="29.0px" stroke="black" stroke-width="1" width="30.0px" x="600.0" y="261.0" /><text font-family="Arial" font-size="24.0px" text-anchor="middle" x="615.0" y="282.5">Ê</text><rect fill="white" height="29.0px" stroke="black" stroke-width="1" width="30.0px" x="630.0" y="261.0" /><text font-family="Arial" font-size="24.0px" text-anchor="middle" x="645.0" y="282.5">N</text><rect fill="white" height="29.0px" stroke="black" stroke-width="1" width="30.0px" x="660.0" y="261.0" /><text font-family="Arial" font-size="24.0px" text-anchor="middle" x="675.0" y="282.5">C</text><rect fill="white" height="29.0px" stroke="black" stroke-width="1" width="30.0px" x="690.0" y="261.0" /><text font-family="Arial" font-size="24.0px" text-anchor="middle" x="705.0" y="282.5">I</text><rect fill="white" height="29.0px" stroke="black" stroke-width="1" width="30.0px" x="720.0" y="261.0" /><text font-family="Arial" font-size="24.0px" text-anchor="middle" x="735.0" y="282.5">A</text><rect fill="white" height="29.0px" stroke="black" stroke-width="1" width="30.0px" x="360.0" y="290.0" /><text font-family="Arial" font-size="24.0px" text-anchor="middle" x="375.0" y="311.5">H</text><rect fill="white" height="29.0px" stroke="black" stroke-width="1" width="30.0px" x="510.0" y="290.0" /><text font-family="Arial" font-size="24.0px" text-anchor="middle" x="525.0" y="311.5">O</text><rect fill="white" height="29.0px" stroke="black" stroke-width="1" width="30.0px" x="690.0" y="290.0" /><text font-family="Arial" font-size="24.0px" text-anchor="middle" x="705.0" y="311.5">O</text><rect fill="white" height="29.0px" stroke="black" stroke-width="1" width="30.0px" x="30.0" y="319.0" /><text font-family="Arial" font-size="24.0px" text-anchor="middle" x="45.0" y="340.5">M</text><rect fill="white" height="29.0px" stroke="black" stroke-width="1" width="30.0px" x="60.0" y="319.0" /><text font-family="Arial" font-size="24.0px" text-anchor="middle" x="75.0" y="340.5">U</text><rect fill="white" height="29.0px" stroke="black" stroke-width="1" width="30.0px" x="90.0" y="319.0" /><text font-family="Arial" font-size="24.0px" text-anchor="middle" x="105.0" y="340.5">L</text><rect fill="white" height="29.0px" stroke="black" stroke-width="1" width="30.0px" x="120.0" y="319.0" /><text font-family="Arial" font-size="24.0px" text-anchor="middle" x="135.0" y="340.5">T</text><rect fill="white" height="29.0px" stroke="black" stroke-width="1" width="30.0px" x="150.0" y="319.0" /><text font-family="Arial" font-size="24.0px" text-anchor="middle" x="165.0" y="340.5">I</text><rect fill="white" height="29.0px" stroke="black" stroke-width="1" width="30.0px" x="180.0" y="319.0" /><text font-family="Arial" font-size="24.0px" text-anchor="middle" x="195.0" y="340.5">P</text><rect fill="white" height="29.0px" stroke="black" stroke-width="1" width="30.0px" x="210.0" y="319.0" /><text font-family="Arial" font-size="24.0px" text-anchor="middle" x="225.0" y="340.5">L</text><rect fill="white" height="29.0px" stroke="black" stroke-width="1" width="30.0px" x="240.0" y="319.0" /><text font-family="Arial" font-size="24.0px" text-anchor="middle" x="255.0" y="340.5">I</text><rect fill="white" height="29.0px" stroke="black" stroke-width="1" width="30.0px" x="270.0" y="319.0" /><text font-family="Arial" font-size="24.0px" text-anchor="middle" x="285.0" y="340.5">C</text><rect fill="white" height="29.0px" stroke="black" stroke-width="1" width="30.0px" x="300.0" y="319.0" /><text font-family="Arial" font-size="24.0px" text-anchor="middle" x="315.0" y="340.5">A</text><rect fill="white" height="29.0px" stroke="black" stroke-width="1" width="30.0px" x="330.0" y="319.0" /><text font-family="Arial" font-size="24.0px" text-anchor="middle" x="345.0" y="340.5">D</text><rect fill="white" height="29.0px" stroke="black" stroke-width="1" width="30.0px" x="360.0" y="319.0" /><text font-family="Arial" font-size="24.0px" text-anchor="middle" x="375.0" y="340.5">O</text><rect fill="white" height="29.0px" stroke="black" stroke-width="1" width="30.0px" x="390.0" y="319.0" /><text font-family="Arial" font-size="24.0px" text-anchor="middle" x="405.0" y="340.5">R</text><rect fill="white" height="29.0px" stroke="black" stroke-width="1" width="30.0px" x="420.0" y="319.0" /><text font-family="Arial" font-size="24.0px" text-anchor="middle" x="435.0" y="340.5">E</text><rect fill="white" height="29.0px" stroke="black" stroke-width="1" width="30.0px" x="450.0" y="319.0" /><text font-family="Arial" font-size="24.0px" text-anchor="middle" x="465.0" y="340.5">S</text><rect fill="white" height="29.0px" stroke="black" stroke-width="1" width="30.0px" x="510.0" y="319.0" /><text font-family="Arial" font-size="24.0px" text-anchor="middle" x="525.0" y="340.5">L</text><rect fill="white" height="29.0px" stroke="black" stroke-width="1" width="30.0px" x="570.0" y="319.0" /><text font-family="Arial" font-size="24.0px" text-anchor="middle" x="585.0" y="340.5">G</text><rect fill="white" height="29.0px" stroke="black" stroke-width="1" width="30.0px" x="690.0" y="319.0" /><text font-family="Arial" font-size="24.0px" text-anchor="middle" x="705.0" y="340.5">S</text><rect fill="white" height="29.0px" stroke="black" stroke-width="1" width="30.0px" x="360.0" y="348.0" /><text font-family="Arial" font-size="24.0px" text-anchor="middle" x="375.0" y="369.5">E</text><rect fill="white" height="29.0px" stroke="black" stroke-width="1" width="30.0px" x="510.0" y="348.0" /><text font-family="Arial" font-size="24.0px" text-anchor="middle" x="525.0" y="369.5">A</text><rect fill="white" height="29.0px" stroke="black" stroke-width="1" width="30.0px" x="570.0" y="348.0" /><text font-family="Arial" font-size="24.0px" text-anchor="middle" x="585.0" y="369.5">E</text><rect fill="white" height="29.0px" stroke="black" stroke-width="1" width="30.0px" x="360.0" y="377.0" /><text font-family="Arial" font-size="24.0px" text-anchor="middle" x="375.0" y="398.5">M</text><rect fill="white" height="29.0px" stroke="black" stroke-width="1" width="30.0px" x="510.0" y="377.0" /><text font-family="Arial" font-size="24.0px" text-anchor="middle" x="525.0" y="398.5">B</text><rect fill="white" height="29.0px" stroke="black" stroke-width="1" width="30.0px" x="570.0" y="377.0" /><text font-family="Arial" font-size="24.0px" text-anchor="middle" x="585.0" y="398.5">S</text><rect fill="white" height="29.0px" stroke="black" stroke-width="1" width="30.0px" x="120.0" y="406.0" /><text font-family="Arial" font-size="24.0px" text-anchor="middle" x="135.0" y="427.5">E</text><rect fill="white" height="29.0px" stroke="black" stroke-width="1" width="30.0px" x="210.0" y="406.0" /><text font-family="Arial" font-size="24.0px" text-anchor="middle" x="225.0" y="427.5">Z</text><rect fill="white" height="29.0px" stroke="black" stroke-width="1" width="30.0px" x="240.0" y="406.0" /><text font-family="Arial" font-size="24.0px" text-anchor="middle" x="255.0" y="427.5">O</text><rect fill="white" height="29.0px" stroke="black" stroke-width="1" width="30.0px" x="270.0" y="406.0" /><text font-family="Arial" font-size="24.0px" text-anchor="middle" x="285.0" y="427.5">N</text><rect fill="white" height="29.0px" stroke="black" stroke-width="1" width="30.0px" x="300.0" y="406.0" /><text font-family="Arial" font-size="24.0px" text-anchor="middle" x="315.0" y="427.5">A</text><rect fill="white" height="29.0px" stroke="black" stroke-width="1" width="30.0px" x="330.0" y="406.0" /><text font-family="Arial" font-size="24.0px" text-anchor="middle" x="345.0" y="427.5">D</text><rect fill="white" height="29.0px" stroke="black" stroke-width="1" width="30.0px" x="360.0" y="406.0" /><text font-family="Arial" font-size="24.0px" text-anchor="middle" x="375.0" y="427.5">E</text><rect fill="white" height="29.0px" stroke="black" stroke-width="1" width="30.0px" x="390.0" y="406.0" /><text font-family="Arial" font-size="24.0px" text-anchor="middle" x="405.0" y="427.5">C</text><rect fill="white" height="29.0px" stroke="black" stroke-width="1" width="30.0px" x="420.0" y="406.0" /><text font-family="Arial" font-size="24.0px" text-anchor="middle" x="435.0" y="427.5">O</text><rect fill="white" height="29.0px" stroke="black" stroke-width="1" width="30.0px" x="450.0" y="406.0" /><text font-family="Arial" font-size="24.0px" text-anchor="middle" x="465.0" y="427.5">N</text><rect fill="white" height="29.0px" stroke="black" stroke-width="1" width="30.0px" x="480.0" y="406.0" /><text font-family="Arial" font-size="24.0px" text-anchor="middle" x="495.0" y="427.5">F</text><rect fill="white" height="29.0px" stroke="black" stroke-width="1" width="30.0px" x="510.0" y="406.0" /><text font-family="Arial" font-size="24.0px" text-anchor="middle" x="525.0" y="427.5">O</text><rect fill="white" height="29.0px" stroke="black" stroke-width="1" width="30.0px" x="540.0" y="406.0" /><text font-family="Arial" font-size="24.0px" text-anchor="middle" x="555.0" y="427.5">R</text><rect fill="white" height="29.0px" stroke="black" stroke-width="1" width="30.0px" x="570.0" y="406.0" /><text font-family="Arial" font-size="24.0px" text-anchor="middle" x="585.0" y="427.5">T</text><rect fill="white" height="29.0px" stroke="black" stroke-width="1" width="30.0px" x="600.0" y="406.0" /><text font-family="Arial" font-size="24.0px" text-anchor="middle" x="615.0" y="427.5">O</text><rect fill="white" height="29.0px" stroke="black" stroke-width="1" width="30.0px" x="0.0" y="435.0" /><text font-family="Arial" font-size="24.0px" text-anchor="middle" x="15.0" y="456.5">M</text><rect fill="white" height="29.0px" stroke="black" stroke-width="1" width="30.0px" x="30.0" y="435.0" /><text font-family="Arial" font-size="24.0px" text-anchor="middle" x="45.0" y="456.5">U</text><rect fill="white" height="29.0px" stroke="black" stroke-width="1" width="30.0px" x="60.0" y="435.0" /><text font-family="Arial" font-size="24.0px" text-anchor="middle" x="75.0" y="456.5">D</text><rect fill="white" height="29.0px" stroke="black" stroke-width="1" width="30.0px" x="90.0" y="435.0" /><text font-family="Arial" font-size="24.0px" text-anchor="middle" x="105.0" y="456.5">A</text><rect fill="white" height="29.0px" stroke="black" stroke-width="1" width="30.0px" x="120.0" y="435.0" /><text font-family="Arial" font-size="24.0px" text-anchor="middle" x="135.0" y="456.5">N</text><rect fill="white" height="29.0px" stroke="black" stroke-width="1" width="30.0px" x="150.0" y="435.0" /><text font-family="Arial" font-size="24.0px" text-anchor="middle" x="165.0" y="456.5">Ç</text><rect fill="white" height="29.0px" stroke="black" stroke-width="1" width="30.0px" x="180.0" y="435.0" /><text font-family="Arial" font-size="24.0px" text-anchor="middle" x="195.0" y="456.5">A</text><rect fill="white" height="29.0px" stroke="black" stroke-width="1" width="30.0px" x="360.0" y="435.0" /><text font-family="Arial" font-size="24.0px" text-anchor="middle" x="375.0" y="456.5">Q</text><rect fill="white" height="29.0px" stroke="black" stroke-width="1" width="30.0px" x="510.0" y="435.0" /><text font-family="Arial" font-size="24.0px" text-anchor="middle" x="525.0" y="456.5">R</text><rect fill="white" height="29.0px" stroke="black" stroke-width="1" width="30.0px" x="570.0" y="435.0" /><text font-family="Arial" font-size="24.0px" text-anchor="middle" x="585.0" y="456.5">Ã</text><rect fill="white" height="29.0px" stroke="black" stroke-width="1" width="30.0px" x="120.0" y="464.0" /><text font-family="Arial" font-size="24.0px" text-anchor="middle" x="135.0" y="485.5">G</text><rect fill="white" height="29.0px" stroke="black" stroke-width="1" width="30.0px" x="360.0" y="464.0" /><text font-family="Arial" font-size="24.0px" text-anchor="middle" x="375.0" y="485.5">U</text><rect fill="white" height="29.0px" stroke="black" stroke-width="1" width="30.0px" x="510.0" y="464.0" /><text font-family="Arial" font-size="24.0px" text-anchor="middle" x="525.0" y="485.5">A</text><rect fill="white" height="29.0px" stroke="black" stroke-width="1" width="30.0px" x="570.0" y="464.0" /><text font-family="Arial" font-size="24.0px" text-anchor="middle" x="585.0" y="485.5">O</text><rect fill="white" height="29.0px" stroke="black" stroke-width="1" width="30.0px" x="30.0" y="493.0" /><text font-family="Arial" font-size="24.0px" text-anchor="middle" x="45.0" y="514.5">Á</text><rect fill="white" height="29.0px" stroke="black" stroke-width="1" width="30.0px" x="60.0" y="493.0" /><text font-family="Arial" font-size="24.0px" text-anchor="middle" x="75.0" y="514.5">R</text><rect fill="white" height="29.0px" stroke="black" stroke-width="1" width="30.0px" x="90.0" y="493.0" /><text font-family="Arial" font-size="24.0px" text-anchor="middle" x="105.0" y="514.5">E</text><rect fill="white" height="29.0px" stroke="black" stroke-width="1" width="30.0px" x="120.0" y="493.0" /><text font-family="Arial" font-size="24.0px" text-anchor="middle" x="135.0" y="514.5">A</text><rect fill="white" height="29.0px" stroke="black" stroke-width="1" width="30.0px" x="150.0" y="493.0" /><text font-family="Arial" font-size="24.0px" text-anchor="middle" x="165.0" y="514.5">S</text><rect fill="white" height="29.0px" stroke="black" stroke-width="1" width="30.0px" x="210.0" y="493.0" /><text font-family="Arial" font-size="24.0px" text-anchor="middle" x="225.0" y="514.5">B</text><rect fill="white" height="29.0px" stroke="black" stroke-width="1" width="30.0px" x="240.0" y="493.0" /><text font-family="Arial" font-size="24.0px" text-anchor="middle" x="255.0" y="514.5">A</text><rect fill="white" height="29.0px" stroke="black" stroke-width="1" width="30.0px" x="270.0" y="493.0" /><text font-family="Arial" font-size="24.0px" text-anchor="middle" x="285.0" y="514.5">R</text><rect fill="white" height="29.0px" stroke="black" stroke-width="1" width="30.0px" x="300.0" y="493.0" /><text font-family="Arial" font-size="24.0px" text-anchor="middle" x="315.0" y="514.5">R</text><rect fill="white" height="29.0px" stroke="black" stroke-width="1" width="30.0px" x="330.0" y="493.0" /><text font-family="Arial" font-size="24.0px" text-anchor="middle" x="345.0" y="514.5">E</text><rect fill="white" height="29.0px" stroke="black" stroke-width="1" width="30.0px" x="360.0" y="493.0" /><text font-family="Arial" font-size="24.0px" text-anchor="middle" x="375.0" y="514.5">I</text><rect fill="white" height="29.0px" stroke="black" stroke-width="1" width="30.0px" x="390.0" y="493.0" /><text font-family="Arial" font-size="24.0px" text-anchor="middle" x="405.0" y="514.5">R</text><rect fill="white" height="29.0px" stroke="black" stroke-width="1" width="30.0px" x="420.0" y="493.0" /><text font-family="Arial" font-size="24.0px" text-anchor="middle" x="435.0" y="514.5">A</text><rect fill="white" height="29.0px" stroke="black" stroke-width="1" width="30.0px" x="450.0" y="493.0" /><text font-family="Arial" font-size="24.0px" text-anchor="middle" x="465.0" y="514.5">S</text><rect fill="white" height="29.0px" stroke="black" stroke-width="1" width="30.0px" x="510.0" y="493.0" /><text font-family="Arial" font-size="24.0px" text-anchor="middle" x="525.0" y="514.5">Ç</text><rect fill="white" height="29.0px" stroke="black" stroke-width="1" width="30.0px" x="570.0" y="493.0" /><text font-family="Arial" font-size="24.0px" text-anchor="middle" x="585.0" y="514.5">D</text><rect fill="white" height="29.0px" stroke="black" stroke-width="1" width="30.0px" x="120.0" y="522.0" /><text font-family="Arial" font-size="24.0px" text-anchor="middle" x="135.0" y="543.5">J</text><rect fill="white" height="29.0px" stroke="black" stroke-width="1" width="30.0px" x="360.0" y="522.0" /><text font-family="Arial" font-size="24.0px" text-anchor="middle" x="375.0" y="543.5">P</text><rect fill="white" height="29.0px" stroke="black" stroke-width="1" width="30.0px" x="510.0" y="522.0" /><text font-family="Arial" font-size="24.0px" text-anchor="middle" x="525.0" y="543.5">Ã</text><rect fill="white" height="29.0px" stroke="black" stroke-width="1" width="30.0px" x="570.0" y="522.0" /><text font-family="Arial" font-size="24.0px" text-anchor="middle" x="585.0" y="543.5">O</text><rect fill="white" height="29.0px" stroke="black" stroke-width="1" width="30.0px" x="660.0" y="522.0" /><text font-family="Arial" font-size="24.0px" text-anchor="middle" x="675.0" y="543.5">A</text><rect fill="white" height="29.0px" stroke="black" stroke-width="1" width="30.0px" x="30.0" y="551.0" /><text font-family="Arial" font-size="24.0px" text-anchor="middle" x="45.0" y="572.5">C</text><rect fill="white" height="29.0px" stroke="black" stroke-width="1" width="30.0px" x="60.0" y="551.0" /><text font-family="Arial" font-size="24.0px" text-anchor="middle" x="75.0" y="572.5">O</text><rect fill="white" height="29.0px" stroke="black" stroke-width="1" width="30.0px" x="90.0" y="551.0" /><text font-family="Arial" font-size="24.0px" text-anchor="middle" x="105.0" y="572.5">L</text><rect fill="white" height="29.0px" stroke="black" stroke-width="1" width="30.0px" x="120.0" y="551.0" /><text font-family="Arial" font-size="24.0px" text-anchor="middle" x="135.0" y="572.5">A</text><rect fill="white" height="29.0px" stroke="black" stroke-width="1" width="30.0px" x="150.0" y="551.0" /><text font-family="Arial" font-size="24.0px" text-anchor="middle" x="165.0" y="572.5">B</text><rect fill="white" height="29.0px" stroke="black" stroke-width="1" width="30.0px" x="180.0" y="551.0" /><text font-family="Arial" font-size="24.0px" text-anchor="middle" x="195.0" y="572.5">O</text><rect fill="white" height="29.0px" stroke="black" stroke-width="1" width="30.0px" x="210.0" y="551.0" /><text font-family="Arial" font-size="24.0px" text-anchor="middle" x="225.0" y="572.5">R</text><rect fill="white" height="29.0px" stroke="black" stroke-width="1" width="30.0px" x="240.0" y="551.0" /><text font-family="Arial" font-size="24.0px" text-anchor="middle" x="255.0" y="572.5">A</text><rect fill="white" height="29.0px" stroke="black" stroke-width="1" width="30.0px" x="270.0" y="551.0" /><text font-family="Arial" font-size="24.0px" text-anchor="middle" x="285.0" y="572.5">D</text><rect fill="white" height="29.0px" stroke="black" stroke-width="1" width="30.0px" x="300.0" y="551.0" /><text font-family="Arial" font-size="24.0px" text-anchor="middle" x="315.0" y="572.5">O</text><rect fill="white" height="29.0px" stroke="black" stroke-width="1" width="30.0px" x="330.0" y="551.0" /><text font-family="Arial" font-size="24.0px" text-anchor="middle" x="345.0" y="572.5">R</text><rect fill="white" height="29.0px" stroke="black" stroke-width="1" width="30.0px" x="360.0" y="551.0" /><text font-family="Arial" font-size="24.0px" text-anchor="middle" x="375.0" y="572.5">E</text><rect fill="white" height="29.0px" stroke="black" stroke-width="1" width="30.0px" x="390.0" y="551.0" /><text font-family="Arial" font-size="24.0px" text-anchor="middle" x="405.0" y="572.5">S</text><rect fill="white" height="29.0px" stroke="black" stroke-width="1" width="30.0px" x="510.0" y="551.0" /><text font-family="Arial" font-size="24.0px" text-anchor="middle" x="525.0" y="572.5">O</text><rect fill="white" height="29.0px" stroke="black" stroke-width="1" width="30.0px" x="570.0" y="551.0" /><text font-family="Arial" font-size="24.0px" text-anchor="middle" x="585.0" y="572.5">T</text><rect fill="white" height="29.0px" stroke="black" stroke-width="1" width="30.0px" x="660.0" y="551.0" /><text font-family="Arial" font-size="24.0px" text-anchor="middle" x="675.0" y="572.5">Ç</text><rect fill="white" height="29.0px" stroke="black" stroke-width="1" width="30.0px" x="120.0" y="580.0" /><text font-family="Arial" font-size="24.0px" text-anchor="middle" x="135.0" y="601.5">M</text><rect fill="white" height="29.0px" stroke="black" stroke-width="1" width="30.0px" x="570.0" y="580.0" /><text font-family="Arial" font-size="24.0px" text-anchor="middle" x="585.0" y="601.5">E</text><rect fill="white" height="29.0px" stroke="black" stroke-width="1" width="30.0px" x="660.0" y="580.0" /><text font-family="Arial" font-size="24.0px" text-anchor="middle" x="675.0" y="601.5">Ã</text><rect fill="white" height="29.0px" stroke="black" stroke-width="1" width="30.0px" x="30.0" y="609.0" /><text font-family="Arial" font-size="24.0px" text-anchor="middle" x="45.0" y="630.5">D</text><rect fill="white" height="29.0px" stroke="black" stroke-width="1" width="30.0px" x="60.0" y="609.0" /><text font-family="Arial" font-size="24.0px" text-anchor="middle" x="75.0" y="630.5">I</text><rect fill="white" height="29.0px" stroke="black" stroke-width="1" width="30.0px" x="90.0" y="609.0" /><text font-family="Arial" font-size="24.0px" text-anchor="middle" x="105.0" y="630.5">V</text><rect fill="white" height="29.0px" stroke="black" stroke-width="1" width="30.0px" x="120.0" y="609.0" /><text font-family="Arial" font-size="24.0px" text-anchor="middle" x="135.0" y="630.5">E</text><rect fill="white" height="29.0px" stroke="black" stroke-width="1" width="30.0px" x="150.0" y="609.0" /><text font-family="Arial" font-size="24.0px" text-anchor="middle" x="165.0" y="630.5">R</text><rect fill="white" height="29.0px" stroke="black" stroke-width="1" width="30.0px" x="180.0" y="609.0" /><text font-family="Arial" font-size="24.0px" text-anchor="middle" x="195.0" y="630.5">S</text><rect fill="white" height="29.0px" stroke="black" stroke-width="1" width="30.0px" x="210.0" y="609.0" /><text font-family="Arial" font-size="24.0px" text-anchor="middle" x="225.0" y="630.5">I</text><rect fill="white" height="29.0px" stroke="black" stroke-width="1" width="30.0px" x="240.0" y="609.0" /><text font-family="Arial" font-size="24.0px" text-anchor="middle" x="255.0" y="630.5">D</text><rect fill="white" height="29.0px" stroke="black" stroke-width="1" width="30.0px" x="270.0" y="609.0" /><text font-family="Arial" font-size="24.0px" text-anchor="middle" x="285.0" y="630.5">A</text><rect fill="white" height="29.0px" stroke="black" stroke-width="1" width="30.0px" x="300.0" y="609.0" /><text font-family="Arial" font-size="24.0px" text-anchor="middle" x="315.0" y="630.5">D</text><rect fill="white" height="29.0px" stroke="black" stroke-width="1" width="30.0px" x="330.0" y="609.0" /><text font-family="Arial" font-size="24.0px" text-anchor="middle" x="345.0" y="630.5">E</text><rect fill="white" height="29.0px" stroke="black" stroke-width="1" width="30.0px" x="480.0" y="609.0" /><text font-family="Arial" font-size="24.0px" text-anchor="middle" x="495.0" y="630.5">E</text><rect fill="white" height="29.0px" stroke="black" stroke-width="1" width="30.0px" x="510.0" y="609.0" /><text font-family="Arial" font-size="24.0px" text-anchor="middle" x="525.0" y="630.5">X</text><rect fill="white" height="29.0px" stroke="black" stroke-width="1" width="30.0px" x="540.0" y="609.0" /><text font-family="Arial" font-size="24.0px" text-anchor="middle" x="555.0" y="630.5">E</text><rect fill="white" height="29.0px" stroke="black" stroke-width="1" width="30.0px" x="570.0" y="609.0" /><text font-family="Arial" font-size="24.0px" text-anchor="middle" x="585.0" y="630.5">M</text><rect fill="white" height="29.0px" stroke="black" stroke-width="1" width="30.0px" x="600.0" y="609.0" /><text font-family="Arial" font-size="24.0px" text-anchor="middle" x="615.0" y="630.5">P</text><rect fill="white" height="29.0px" stroke="black" stroke-width="1" width="30.0px" x="630.0" y="609.0" /><text font-family="Arial" font-size="24.0px" text-anchor="middle" x="645.0" y="630.5">L</text><rect fill="white" height="29.0px" stroke="black" stroke-width="1" width="30.0px" x="660.0" y="609.0" /><text font-family="Arial" font-size="24.0px" text-anchor="middle" x="675.0" y="630.5">O</text><rect fill="white" height="29.0px" stroke="black" stroke-width="1" width="30.0px" x="690.0" y="609.0" /><text font-family="Arial" font-size="24.0px" text-anchor="middle" x="705.0" y="630.5">S</text><rect fill="white" height="29.0px" stroke="black" stroke-width="1" width="30.0px" x="120.0" y="638.0" /><text font-family="Arial" font-size="24.0px" text-anchor="middle" x="135.0" y="659.5">N</text><rect fill="white" height="29.0px" stroke="black" stroke-width="1" width="30.0px" x="570.0" y="638.0" /><text font-family="Arial" font-size="24.0px" text-anchor="middle" x="585.0" y="659.5">P</text><rect fill="white" height="29.0px" stroke="black" stroke-width="1" width="30.0px" x="30.0" y="667.0" /><text font-family="Arial" font-size="24.0px" text-anchor="middle" x="45.0" y="688.5">H</text><rect fill="white" height="29.0px" stroke="black" stroke-width="1" width="30.0px" x="60.0" y="667.0" /><text font-family="Arial" font-size="24.0px" text-anchor="middle" x="75.0" y="688.5">I</text><rect fill="white" height="29.0px" stroke="black" stroke-width="1" width="30.0px" x="90.0" y="667.0" /><text font-family="Arial" font-size="24.0px" text-anchor="middle" x="105.0" y="688.5">S</text><rect fill="white" height="29.0px" stroke="black" stroke-width="1" width="30.0px" x="120.0" y="667.0" /><text font-family="Arial" font-size="24.0px" text-anchor="middle" x="135.0" y="688.5">T</text><rect fill="white" height="29.0px" stroke="black" stroke-width="1" width="30.0px" x="150.0" y="667.0" /><text font-family="Arial" font-size="24.0px" text-anchor="middle" x="165.0" y="688.5">Ó</text><rect fill="white" height="29.0px" stroke="black" stroke-width="1" width="30.0px" x="180.0" y="667.0" /><text font-family="Arial" font-size="24.0px" text-anchor="middle" x="195.0" y="688.5">R</text><rect fill="white" height="29.0px" stroke="black" stroke-width="1" width="30.0px" x="210.0" y="667.0" /><text font-family="Arial" font-size="24.0px" text-anchor="middle" x="225.0" y="688.5">I</text><rect fill="white" height="29.0px" stroke="black" stroke-width="1" width="30.0px" x="240.0" y="667.0" /><text font-family="Arial" font-size="24.0px" text-anchor="middle" x="255.0" y="688.5">A</text><rect fill="white" height="29.0px" stroke="black" stroke-width="1" width="30.0px" x="270.0" y="667.0" /><text font-family="Arial" font-size="24.0px" text-anchor="middle" x="285.0" y="688.5">S</text><rect fill="white" height="29.0px" stroke="black" stroke-width="1" width="30.0px" x="330.0" y="667.0" /><text font-family="Arial" font-size="24.0px" text-anchor="middle" x="345.0" y="688.5">R</text><rect fill="white" height="29.0px" stroke="black" stroke-width="1" width="30.0px" x="360.0" y="667.0" /><text font-family="Arial" font-size="24.0px" text-anchor="middle" x="375.0" y="688.5">E</text><rect fill="white" height="29.0px" stroke="black" stroke-width="1" width="30.0px" x="390.0" y="667.0" /><text font-family="Arial" font-size="24.0px" text-anchor="middle" x="405.0" y="688.5">S</text><rect fill="white" height="29.0px" stroke="black" stroke-width="1" width="30.0px" x="420.0" y="667.0" /><text font-family="Arial" font-size="24.0px" text-anchor="middle" x="435.0" y="688.5">U</text><rect fill="white" height="29.0px" stroke="black" stroke-width="1" width="30.0px" x="450.0" y="667.0" /><text font-family="Arial" font-size="24.0px" text-anchor="middle" x="465.0" y="688.5">L</text><rect fill="white" height="29.0px" stroke="black" stroke-width="1" width="30.0px" x="480.0" y="667.0" /><text font-family="Arial" font-size="24.0px" text-anchor="middle" x="495.0" y="688.5">T</text><rect fill="white" height="29.0px" stroke="black" stroke-width="1" width="30.0px" x="510.0" y="667.0" /><text font-family="Arial" font-size="24.0px" text-anchor="middle" x="525.0" y="688.5">A</text><rect fill="white" height="29.0px" stroke="black" stroke-width="1" width="30.0px" x="540.0" y="667.0" /><text font-family="Arial" font-size="24.0px" text-anchor="middle" x="555.0" y="688.5">D</text><rect fill="white" height="29.0px" stroke="black" stroke-width="1" width="30.0px" x="570.0" y="667.0" /><text font-family="Arial" font-size="24.0px" text-anchor="middle" x="585.0" y="688.5">O</text><rect fill="white" height="29.0px" stroke="black" stroke-width="1" width="30.0px" x="600.0" y="667.0" /><text font-family="Arial" font-size="24.0px" text-anchor="middle" x="615.0" y="688.5">S</text><rect fill="white" height="29.0px" stroke="black" stroke-width="1" width="30.0px" x="120.0" y="696.0" /><text font-family="Arial" font-size="24.0px" text-anchor="middle" x="135.0" y="717.5">O</text></svg>